<?xml version="1.0" encoding="utf-8"?>
<!-- Generator: Adobe Illustrator 19.0.1, SVG Export Plug-In . SVG Version: 6.00 Build 0)  -->
<svg version="1.1" xmlns="http://www.w3.org/2000/svg" xmlns:xlink="http://www.w3.org/1999/xlink" x="0px" y="0px"
	 viewBox="0 0 271.3 56.8" enable-background="new 0 0 271.3 56.8" xml:space="preserve">
<g id="Logo">
	<g id="XMLID_5_">
		<path id="XMLID_6_" fill="none" d="M144.6,35.9c0,3.2,3.2,4,6.8,4c3.5,0,6.8-1,8.6-2.9v-3.6c-2.3-0.9-5.3-1.5-8.3-1.5
			C147.2,31.8,144.6,32.6,144.6,35.9z"/>
		<path id="XMLID_33_" fill="none" d="M70,21.8c-4.7,0-7.7,2.4-8.5,6.5h16.8C77.7,24.3,75.3,21.8,70,21.8z"/>
		<path id="XMLID_39_" fill="#FFFFFF" d="M70.1,17.6c-8.7,0-14.2,5.9-14.2,13.5v0.7c0,8.1,6,12.6,14.3,12.6c6,0,10-2,12.4-4.1
			l-2.9-4.1c-1.7,2.1-4.8,3.6-9.2,3.6c-5.2,0-8.9-2.2-9.2-7.6h22.7v-0.7C84.1,24.7,80.5,17.6,70.1,17.6z M61.6,28.2
			c0.8-4.1,3.8-6.5,8.5-6.5c5.2,0,7.7,2.6,8.3,6.5H61.6z"/>
		<path id="XMLID_40_" fill="#FFFFFF" d="M122.7,17.6c-4.6,0-8,2.4-9.9,4.8c-1.4-2.9-4.7-4.8-8.8-4.8c-4.9,0-8.1,2.2-9.7,4.3
			l-0.4-3.8h-5.4v25.7h6V26c1.6-2.2,4.4-3.4,7.4-3.4c4.7,0,6.5,2.4,6.5,6.5v14.6h6.1V25.7c1.6-1.8,3.8-3,7.1-3
			c4.8,0,6.8,2.6,6.8,7.3v13.7h6V30.1C134.5,21.8,130.6,17.6,122.7,17.6z"/>
		<path id="XMLID_43_" fill="#FFFFFF" d="M165.4,28.7c0.2-8-5.3-11.1-12.6-11.1c-5.4,0-8.9,1.2-11.7,2.7l1.9,4.6
			c1.8-1.6,5-2.7,9.1-2.7c4.7,0,8.1,1.4,8,6l-0.1,1.6c-2.5-1.1-5.9-2-9.6-2c-6.4,0-11.5,2-11.5,8.5c0,5.9,5.6,8.1,11.2,8.1
			c5.3,0,8.4-2,10.1-3.7c0.1,1.1,0.3,2.3,0.5,3.2h5.1c-0.3-1.1-0.5-2.9-0.5-6.9C165.3,34.4,165.3,31.3,165.4,28.7z M160.1,37
			c-1.8,2-5.2,2.9-8.6,2.9c-3.7,0-6.8-0.9-6.8-4c0-3.3,2.6-4.1,7.2-4.1c3,0,5.9,0.7,8.3,1.5V37z"/>
		<path id="XMLID_44_" fill="#FFFFFF" d="M177.2,23.9l-0.3-5.9h-5.4v25.7h5.8V28.5c1-3,3.3-5.3,6.2-5.3c1.5,0,2.7,0.4,3.5,0.9l1-5.6
			c-0.8-0.4-2.3-0.7-3.6-0.7C180.8,17.8,178.3,20,177.2,23.9z"/>
		<path id="XMLID_45_" fill="#FFFFFF" d="M204.4,28.5c-5.2-0.6-8.5-0.5-8.5-2.8c0-2.4,2.4-3.6,6.6-3.6c3.7,0,7.1,0.7,9.3,2.2
			l1.7-4.5c-3-1.4-6.8-2.2-11.1-2.2c-8,0-11.7,3.8-11.7,8.5c0,4.7,3.8,5.8,10.2,6.6c5.4,0.5,8.7,0.3,8.7,3.3c0,2.8-2.9,3.9-7.6,3.9
			c-4.1,0-8-1.3-10.4-3.5l-2,4.9c3.1,1.9,7.6,3.1,12.5,3.1c7.7,0,12.4-2.8,12.4-8.7C214.6,29.7,209.1,29,204.4,28.5z"/>
		<path id="XMLID_46_" fill="#FFFFFF" d="M240.3,18.1l-8.8,21l-8.6-21h-6.4l11.8,25.6c-1.1,2.4-3.1,6-5.5,9.5l5.7,1.8
			c5.4-8.8,11.6-22.1,18.1-36.8H240.3z"/>
		<path id="XMLID_47_" fill="#FFFFFF" d="M261.1,28.5c-5.2-0.6-8.5-0.5-8.5-2.8c0-2.4,2.4-3.6,6.6-3.6c3.7,0,7.1,0.7,9.3,2.2
			l1.7-4.5c-3-1.4-6.8-2.2-11.1-2.2c-8,0-11.7,3.8-11.7,8.5c0,4.7,3.8,5.8,10.2,6.6c5.4,0.5,8.7,0.3,8.7,3.3c0,2.8-2.9,3.9-7.6,3.9
			c-4.1,0-8-1.3-10.4-3.5l-2,4.9c3.1,1.9,7.6,3.1,12.5,3.1c7.7,0,12.4-2.8,12.4-8.7C271.3,29.7,265.8,29,261.1,28.5z"/>
		<polygon id="XMLID_48_" fill="#E2E71F" points="19.6,35.1 39.1,26.3 39.1,17.6 19.6,26.3 		"/>
		<polygon id="XMLID_49_" fill="#5B87DA" points="9.9,56.8 39.1,43.9 39.1,35.1 9.9,48 		"/>
		<rect id="XMLID_50_" x="0" y="17.6" fill="#4D868E" width="0" height="8.8"/>
		<polygon id="XMLID_51_" fill="#4D868E" points="9.8,21.9 0,26.3 19.6,35.1 19.6,26.3 		"/>
		<polygon id="XMLID_60_" fill="#05CE7C" points="39.1,8.8 39.1,0 0,17.6 0,26.3 9.8,21.9 		"/>
	</g>
</g>
<g id="Clear_Space" display="none">
	<rect id="XMLID_118_" x="-19.6" y="-19.5" display="inline" opacity="0.24" fill="#D8E022" width="19.6" height="19.6"/>
	<rect id="XMLID_125_" x="-19.6" y="57" display="inline" opacity="0.24" fill="#D8E022" width="19.6" height="19.6"/>
	<rect id="XMLID_127_" x="271.9" y="-19.5" display="inline" opacity="0.24" fill="#D8E022" width="19.6" height="19.6"/>
	<rect id="XMLID_126_" x="271.9" y="57" display="inline" opacity="0.24" fill="#D8E022" width="19.6" height="19.6"/>
</g>
</svg>
